<svg width="25" height="25" viewBox="0 0 25 25" fill="none" xmlns="http://www.w3.org/2000/svg">
<path d="M21.5 12.29C21.5 16.44 19.29 21.5 12.63 21.5C7.62461 21.5332 3.53852 17.5053 3.5 12.5C3.53852 7.49461 7.62461 3.4667 12.63 3.49996C14.7007 3.50764 16.7085 4.21213 18.33 5.49996C18.442 5.59149 18.5109 5.72557 18.52 5.86996C18.5206 6.01605 18.463 6.15637 18.36 6.25996C17.709 6.85516 17.0882 7.48261 16.5 8.13996C16.3289 8.32826 16.0422 8.35432 15.84 8.19996C14.9161 7.51624 13.7888 7.16394 12.64 7.19996C9.68528 7.19996 7.29 9.59524 7.29 12.55C7.29 15.5047 9.68528 17.9 12.64 17.9C15.64 17.9 16.91 16.62 17.57 14.35H13C12.7239 14.35 12.5 14.1261 12.5 13.85V11.2C12.5 10.9238 12.7239 10.7 13 10.7H21C21.2302 10.6985 21.4244 10.8711 21.45 11.1C21.4871 11.4955 21.5038 11.8927 21.5 12.29Z" fill="black"/>
</svg>
