<svg width="47" height="72" viewBox="0 0 47 72" fill="none" xmlns="http://www.w3.org/2000/svg">
<path fill-rule="evenodd" clip-rule="evenodd" d="M6.45353 31.0673C6.68927 31.4482 23.7869 48.7008 24.5085 49.1165L42.5589 31.1007C42.0814 30.4022 25.7803 13.8738 24.5085 13.0566L6.45353 31.0673Z" fill="#EBE5DC"/>
<path fill-rule="evenodd" clip-rule="evenodd" d="M24.5085 13.0566C25.7803 13.8738 42.0814 30.4022 42.5589 31.1007L24.5085 49.1165C23.7869 48.7008 6.68927 31.4482 6.45353 31.0673L24.5085 13.0566ZM16.2402 45.1386C17.91 46.1022 19.0887 47.6629 20.4391 49.0014C21.8332 50.3833 23.0167 51.6853 24.5085 53.0716C25.1783 52.6312 30.8611 46.6433 32.8228 45.0938C32.6399 44.7325 46.0502 32.1362 46.4937 31.0673C46.1102 30.3865 37.669 22.0832 36.4261 20.8826L28.916 13.3723C28.3762 12.8768 26.7114 11.2923 26.3622 10.6927C26.7231 10.6986 27.2566 10.7268 27.6065 10.7073L28.6154 10.4552C24.9504 10.5842 26.7572 10.3679 24.5085 12.159C23.7689 11.8338 23.5947 11.3198 23.0103 10.8128C22.3996 10.2827 21.4027 10.4927 20.3581 10.436C20.9842 10.8379 21.8349 10.6822 22.6175 10.7183C22.117 11.6502 3.23669 29.7414 2.49013 31.0673C2.95271 31.8365 11.4573 40.1268 12.865 41.5531C13.4818 42.1781 13.9896 42.6587 14.5893 43.2929C15.1297 43.8644 15.89 44.4435 16.2402 45.1386Z" fill="#0E5543"/>
<path fill-rule="evenodd" clip-rule="evenodd" d="M11.3713 62.2398C11.2937 62.3329 11.2882 62.3445 11.0964 62.5164C10.9902 62.6117 10.8855 62.689 10.7813 62.7732L9.21528 64.2948C8.51964 65.0705 7.96117 65.7602 7.16674 66.4863C6.40337 67.184 5.85351 67.9187 5.13031 68.6861C4.42867 69.4306 3.30162 70.3703 4.45372 71.1572C5.42511 71.7249 10.1933 68.5275 11.777 67.6315C15.0307 65.7909 18.3565 63.9121 21.5482 61.9923C22.44 61.4559 26.5612 61.5041 27.6835 62.1592C30.8916 64.0313 33.9433 65.7244 37.2192 67.6479C38.3479 68.3106 43.701 71.7049 44.5308 71.2539C45.5381 70.1408 44.6147 69.4545 43.8751 68.6947C43.0657 67.8632 42.543 67.3492 41.8157 66.5202L37.6385 62.2338L35.5372 61.2353C34.7618 60.793 34.1982 60.4455 33.47 60.0281C32.033 59.2044 30.746 58.4284 29.3294 57.6442C29.92 57.0485 43.4534 49.4322 44.932 48.4631C45.0749 46.9614 44.6022 46.9619 43.4527 46.6127C42.4552 46.3097 41.8278 45.9982 40.7864 45.8575L41.612 47.2416C37.1054 50.09 29.341 54.9381 24.5085 57.1203L7.29249 47.1521C7.54701 46.7998 7.38921 46.745 7.78252 46.3247C8.10215 45.9831 7.84442 46.2498 8.23151 45.9731L8.71204 45.6298C7.64558 45.8631 4.80921 46.7358 4.09114 47.1692C3.81873 48.6279 4.25352 48.7005 5.21546 49.2154L19.6598 57.592L11.3713 62.2398Z" fill="#0E5543"/>
<path fill-rule="evenodd" clip-rule="evenodd" d="M20.9959 6.42083C21.8753 4.96264 21.7922 6.34627 21.9846 3.93591C24.4416 3.84629 23.0536 3.73216 24.5086 2.97675C26.2511 4.11046 24.4107 3.55925 26.9658 3.99038C26.994 5.9415 27.1282 5.28445 27.9321 6.42083C27.2025 7.43893 26.913 7.01353 26.9789 8.87011C26.3983 8.94942 25.9145 8.84555 25.4414 9.09826C24.9306 9.37117 25.136 9.60374 24.2045 9.94181C23.6259 8.95804 23.4705 8.98817 21.9627 8.89303C21.8707 6.4115 21.6691 7.83896 20.9959 6.42083ZM20.3581 10.436C21.4027 10.4927 22.3996 10.2827 23.0103 10.8128C23.5947 11.3198 23.7689 11.8338 24.5085 12.159C26.7572 10.3679 24.9504 10.5842 28.6154 10.4552C28.5421 7.05976 28.7721 8.20815 30.2149 6.42083C28.6587 4.58641 28.5778 5.67301 28.6022 2.3298C25.2593 2.3298 24.5086 0.705029 24.5086 0.705029C23.0823 2.13124 23.0584 2.44568 20.356 2.44568C20.3812 5.99854 20.0674 4.52113 18.7476 6.42083C19.6647 8.33942 20.4386 6.57655 20.3581 10.436Z" fill="#0E5543"/>
<path fill-rule="evenodd" clip-rule="evenodd" d="M23.5233 5.40736C23.281 4.58662 23.9604 4.14718 24.5085 3.82799C25.1072 4.17022 25.5024 4.53493 25.4823 5.42515C25.8297 5.03457 25.8075 4.7776 26.3729 4.54186L25.7971 5.3233C26.2356 5.51957 26.1923 5.48361 26.5156 5.7594C26.5382 5.77873 26.8004 6.0512 26.8046 6.05616C27.0495 6.34331 26.8647 6.08455 27.0542 6.42082C26.2156 7.45131 26.4541 7.0407 25.8779 7.40694C25.3396 7.74911 25.9463 7.19134 25.5653 7.66364C25.2228 8.08817 25.5366 8.51936 24.2313 9.00748C23.8079 8.11197 23.4758 8.77949 23.5004 7.39351C22.5386 7.42495 22.3668 7.07252 21.8941 6.42082C22.2303 5.97134 22.5605 5.35021 23.5233 5.40736ZM20.9959 6.42083C21.6691 7.83896 21.8707 6.4115 21.9627 8.89303C23.4705 8.98817 23.6259 8.95804 24.2045 9.94181C25.136 9.60374 24.9306 9.37117 25.4414 9.09826C25.9145 8.84555 26.3983 8.94942 26.9789 8.87011C26.913 7.01353 27.2025 7.43893 27.9321 6.42083C27.1282 5.28445 26.994 5.9415 26.9658 3.99038C24.4107 3.55925 26.2511 4.11046 24.5086 2.97675C23.0536 3.73216 24.4416 3.84629 21.9846 3.93591C21.7922 6.34627 21.8753 4.96264 20.9959 6.42083Z" fill="white"/>
<path fill-rule="evenodd" clip-rule="evenodd" d="M23.5233 5.40736C22.7446 5.36113 22.3036 5.78306 21.9139 6.3978C22.2435 6.84482 22.5794 7.44063 23.5233 7.38458C23.281 8.20532 23.9605 8.64475 24.5086 8.96394C25.1073 8.62172 25.5024 8.257 25.4824 7.36678C26.3854 7.36678 26.5159 7.32312 27.0392 6.3978C26.6284 5.56091 26.3814 5.42515 25.4823 5.42515C25.5024 4.53493 25.1072 4.17022 24.5085 3.82799C23.9604 4.14718 23.281 4.58662 23.5233 5.40736Z" fill="#0E5543"/>
<path fill-rule="evenodd" clip-rule="evenodd" d="M34.3106 31.8769C35.1621 32.471 35.4209 32.5692 36.964 32.3748C37.0338 31.2106 36.9673 30.2852 35.9789 30.0131C34.637 29.6436 34.2117 30.6236 34.3106 31.8769Z" fill="#EBE5DC"/>
<path fill-rule="evenodd" clip-rule="evenodd" d="M16.288 31.8239C17.2973 32.6052 17.3204 32.4703 18.9496 32.408C19.0218 31.1622 18.9758 30.2477 17.8866 29.9861C16.6531 29.6896 16.1895 30.6755 16.288 31.8239Z" fill="#EBE5DC"/>
<path fill-rule="evenodd" clip-rule="evenodd" d="M8.976 45.5827L7.78252 46.3247L7.29249 47.1521L24.5085 57.1203L41.612 47.2416L40.9161 46.0748L24.5057 55.448L8.976 45.5827Z" fill="white"/>
<path fill-rule="evenodd" clip-rule="evenodd" d="M8.71204 45.6298C8.39782 45.8543 8.04282 46.0465 7.78252 46.3247C13.422 49.2861 19.0959 52.6801 24.4501 56.2437C30.7406 53.4032 35.0168 50.1029 41.0457 46.2922L40.7864 45.8575C39.9445 45.7033 37.8954 44.8307 36.9022 44.4593C35.1206 43.7933 34.4056 44.7563 32.8228 45.0938C30.8611 46.6433 25.1783 52.6312 24.5085 53.0716C23.0167 51.6853 21.8332 50.3833 20.4391 49.0014C19.0887 47.6629 17.91 46.1022 16.2402 45.1386C15.0833 44.7697 13.6289 43.9731 12.3607 44.3231C11.3302 44.6076 9.74215 45.4972 8.71204 45.6298Z" fill="#E6E6E6"/>
<path d="M30.1065 10.8632L30.5078 10.9927C30.4661 10.8731 30.4575 10.7601 30.482 10.6536C30.5065 10.5471 30.5583 10.4533 30.6372 10.3721C30.7063 10.301 30.7827 10.2469 30.8663 10.2097C30.9538 10.1724 31.0417 10.1531 31.1298 10.1519C31.2199 10.1486 31.3072 10.1624 31.3917 10.1933C31.4783 10.2261 31.5551 10.2751 31.6221 10.3402C31.6728 10.3896 31.7126 10.4401 31.7413 10.4917C31.7721 10.5454 31.7991 10.6131 31.8223 10.6949L31.4376 10.8955C31.4231 10.8617 31.4046 10.8259 31.382 10.7882C31.3615 10.7524 31.336 10.7197 31.3056 10.6901C31.2406 10.6269 31.172 10.5939 31.0999 10.5909C31.0318 10.5878 30.9701 10.6147 30.9148 10.6716C30.8655 10.7223 30.8413 10.7817 30.8422 10.8498C30.8451 10.9159 30.8781 10.9795 30.941 11.0407C30.9654 11.0644 30.9927 11.087 31.0231 11.1086C31.0554 11.1282 31.0927 11.1467 31.135 11.1641C31.1793 11.1835 31.2306 11.2018 31.289 11.219C31.3493 11.2382 31.4207 11.2602 31.5032 11.2851L31.3648 11.7016L29.9681 11.2796L30.1065 10.8632Z" fill="#FFCC00"/>
<path d="M31.0886 13.1214C31.1657 13.1964 31.2426 13.2494 31.3191 13.2804C31.3957 13.3153 31.47 13.3323 31.5421 13.3313C31.6142 13.3303 31.685 13.3143 31.7547 13.2832C31.8224 13.2543 31.8849 13.2143 31.9422 13.1635L31.7351 12.9621C31.6296 12.8595 31.5541 12.7644 31.5089 12.6769C31.4636 12.5895 31.4424 12.5056 31.4452 12.4255C31.4501 12.3433 31.475 12.2629 31.52 12.1841C31.5669 12.1074 31.6289 12.0294 31.7059 11.9502C31.7829 11.8711 31.8661 11.8078 31.9556 11.7605C32.047 11.7111 32.1397 11.6808 32.2336 11.6695C32.3296 11.6601 32.4249 11.6718 32.5195 11.7045C32.616 11.7352 32.707 11.792 32.7922 11.8749C32.8613 11.942 32.9154 12.0163 32.9546 12.0979C32.9958 12.1814 33.0161 12.2703 33.0154 12.3644C33.0147 12.4585 32.9901 12.557 32.9414 12.6598C32.8948 12.7646 32.8173 12.8728 32.7087 12.9845L32.5725 13.1246L32.8192 13.3644C32.8638 13.4078 32.8339 13.4834 32.7292 13.591C32.6167 13.7067 32.5381 13.7428 32.4935 13.6994L32.2407 13.4536C32.1399 13.5492 32.0278 13.6238 31.9044 13.6776C31.781 13.7314 31.6542 13.7603 31.5241 13.7641C31.3961 13.7699 31.2686 13.7487 31.1418 13.7004C31.0129 13.6541 30.8927 13.5767 30.781 13.4681L30.4734 13.1691L30.7779 12.8194L31.0886 13.1214ZM32.0251 12.2191C31.956 12.2902 31.9229 12.3547 31.9257 12.4127C31.9305 12.4727 31.9797 12.5482 32.073 12.639L32.274 12.8344L32.4132 12.6912C32.5159 12.5857 32.5676 12.4918 32.5685 12.4097C32.5713 12.3296 32.5372 12.255 32.4662 12.1859C32.3992 12.1207 32.3277 12.0907 32.2516 12.0958C32.1756 12.1008 32.1001 12.1419 32.0251 12.2191Z" fill="#FFCC00"/>
<path d="M33.6492 14.1655C34.086 14.0372 34.4346 13.9753 34.695 13.9796C34.9573 13.9819 35.1575 14.0502 35.2956 14.1844C35.3768 14.2634 35.4351 14.3497 35.4704 14.4433C35.5078 14.5389 35.5232 14.6348 35.5165 14.731C35.5139 14.8272 35.4892 14.9237 35.4425 15.0204C35.3978 15.1152 35.3359 15.2032 35.257 15.2844C35.1958 15.3473 35.1264 15.3964 35.0488 15.4315C35.0616 15.4914 35.0844 15.5431 35.117 15.5867C35.1537 15.6303 35.1934 15.6728 35.236 15.7142L35.2725 15.7498C35.3172 15.7932 35.2872 15.8687 35.1826 15.9763C35.0701 16.092 34.9915 16.1282 34.9468 16.0848L34.9103 16.0492C34.8555 15.9959 34.8005 15.9326 34.7454 15.8593C34.6943 15.7859 34.6678 15.6832 34.666 15.551C34.5798 15.5462 34.4934 15.5254 34.4068 15.4886C34.3222 15.4537 34.2393 15.3968 34.1581 15.3179L33.3358 14.5184C33.2586 14.4434 33.1994 14.3621 33.1581 14.2746C33.1188 14.185 33.1133 14.0789 33.1417 13.9564C33.0199 13.9881 32.9148 13.9866 32.8262 13.9518C32.7416 13.917 32.6648 13.866 32.5957 13.7989L32.4922 13.6982C32.4658 13.6725 32.4614 13.6425 32.4789 13.6083C32.4964 13.57 32.5308 13.5244 32.5821 13.4716C32.6394 13.4128 32.6869 13.374 32.7247 13.3555C32.7604 13.335 32.7915 13.3375 32.8179 13.3632L32.9245 13.4668C33.0666 13.605 33.2018 13.6081 33.3302 13.4761L33.6796 13.1168L33.9871 13.4158L33.6377 13.7752C33.5785 13.8361 33.5514 13.9006 33.5564 13.9686C33.5633 14.0386 33.5943 14.1042 33.6492 14.1655ZM34.9463 14.9824C35.0075 14.9194 35.0415 14.8418 35.0482 14.7496C35.0589 14.6574 35.0237 14.5718 34.9425 14.4928C34.8694 14.4217 34.7547 14.3833 34.5984 14.3775C34.4461 14.3716 34.2323 14.4027 33.9569 14.4706L34.4959 14.9947C34.5609 15.0579 34.6335 15.0909 34.7136 15.0938C34.7957 15.0946 34.8733 15.0575 34.9463 14.9824ZM35.6826 13.9387L35.3385 13.6041L35.6405 13.2935L35.9847 13.6281L35.6826 13.9387Z" fill="#FFCC00"/>
<path d="M35.3416 15.8169C35.4796 15.9511 35.6128 15.9522 35.7411 15.8203L37.0588 14.465L37.3694 14.7671L36.031 16.1436C35.8672 16.3121 35.6992 16.3976 35.527 16.4C35.3588 16.4024 35.1976 16.3285 35.0433 16.1785L34.9458 16.0838C34.9194 16.0581 34.915 16.0281 34.9325 15.9938C34.95 15.9555 34.9844 15.91 35.0357 15.8572C35.093 15.7983 35.1405 15.7596 35.1783 15.7411C35.214 15.7205 35.2451 15.7231 35.2715 15.7488L35.3416 15.8169Z" fill="#FFCC00"/>
<path d="M37.7557 15.1427L38.0664 15.4447L36.2305 17.3329L35.9199 17.0309L37.7557 15.1427Z" fill="#FFCC00"/>
<path d="M38.8316 19.2101C38.9676 19.3424 39.0997 19.3425 39.2281 19.2106L39.5775 18.8512L39.8881 19.1532L39.5387 19.5126C39.4696 19.5836 39.4426 19.6561 39.4576 19.73C39.4747 19.8059 39.5127 19.8724 39.5716 19.9297L39.6325 19.9889C39.6589 20.0145 39.6623 20.0455 39.6428 20.0818C39.6273 20.1181 39.5939 20.1626 39.5426 20.2154C39.4853 20.2743 39.4378 20.313 39.4 20.3316C39.3643 20.3521 39.3332 20.3495 39.3068 20.3239L39.2337 20.2528C39.1586 20.1798 39.1004 20.0995 39.0591 20.0119C39.0218 19.9244 39.0173 19.8193 39.0457 19.6967C38.9219 19.7265 38.8168 19.725 38.7302 19.6922C38.6476 19.6593 38.5728 19.6103 38.5058 19.5451L37.4795 18.5473C37.3963 18.4663 37.3361 18.3841 37.2988 18.3005C37.2656 18.2168 37.2504 18.135 37.2533 18.0548C37.2582 17.9766 37.2792 17.9003 37.3162 17.8256C37.3552 17.753 37.4053 17.6852 37.4665 17.6223L37.887 17.1898L38.1976 17.4918L37.8541 17.8451C37.789 17.9121 37.7519 17.9787 37.7428 18.0449C37.7377 18.1111 37.7819 18.1896 37.8753 18.2804L38.8316 19.2101ZM39.4975 18.2936L39.1808 17.9857L39.471 17.6872L39.7877 17.9952L39.4975 18.2936ZM39.062 17.8702L38.7453 17.5622L39.0355 17.2638L39.3522 17.5717L39.062 17.8702Z" fill="#FFCC00"/>
<path d="M39.8447 20.1951C39.9807 20.3274 40.1129 20.3276 40.2412 20.1956L40.5906 19.8362L40.9042 20.1412L40.5548 20.5006C40.4858 20.5716 40.4577 20.6431 40.4707 20.715C40.4858 20.7889 40.5228 20.8545 40.5816 20.9117L40.6608 20.9887C40.7075 21.0341 40.6786 21.1106 40.5739 21.2182C40.4614 21.3339 40.3818 21.3691 40.3351 21.3237L40.2468 21.2378C40.1697 21.1628 40.1115 21.0825 40.0722 20.997C40.0349 20.9094 40.0304 20.8043 40.0588 20.6818C39.933 20.7096 39.8278 20.708 39.7433 20.6772C39.6607 20.6443 39.5859 20.5953 39.5189 20.5301L39.3058 20.3229C39.2794 20.2972 39.2749 20.2672 39.2925 20.2329C39.31 20.1947 39.3444 20.1491 39.3957 20.0963C39.4529 20.0374 39.5005 19.9987 39.5382 19.9802C39.574 19.9596 39.6051 19.9622 39.6315 19.9879L39.8447 20.1951ZM39.5732 21.827L39.2595 21.522L39.5497 21.2236L39.8634 21.5286L39.5732 21.827ZM39.1347 21.4006L38.821 21.0957L39.1112 20.7972L39.4249 21.1022L39.1347 21.4006Z" fill="#FFCC00"/>
<path d="M40.9407 21.2608C41.0767 21.393 41.2089 21.3932 41.3372 21.2612L41.6866 20.9019L41.9972 21.2039L41.6271 21.5846C41.4633 21.7531 41.2963 21.8395 41.1261 21.8439C40.9579 21.8463 40.7967 21.7725 40.6424 21.6224L40.3351 21.3237C40.3087 21.298 40.304 21.2677 40.3215 21.2334C40.339 21.1952 40.3734 21.1496 40.4247 21.0968C40.482 21.0379 40.5295 20.9992 40.5673 20.9807C40.603 20.9601 40.6344 20.963 40.6608 20.9887L40.9407 21.2608ZM42.2493 20.7558L41.9051 20.4212L42.2071 20.1105L42.5513 20.4451L42.2493 20.7558Z" fill="#FFCC00"/>
<path d="M41.3372 23.0859C41.4143 23.1609 41.4912 23.2139 41.5677 23.2449C41.6443 23.2798 41.7186 23.2968 41.7907 23.2958C41.8628 23.2948 41.9336 23.2788 42.0033 23.2478C42.071 23.2188 42.1335 23.1788 42.1908 23.128L41.9837 22.9266C41.8782 22.824 41.8027 22.7289 41.7575 22.6414C41.7122 22.554 41.691 22.4702 41.6938 22.39C41.6987 22.3078 41.7236 22.2274 41.7686 22.1487C41.8155 22.0719 41.8775 21.9939 41.9545 21.9147C42.0315 21.8356 42.1147 21.7723 42.2042 21.725C42.2956 21.6757 42.3883 21.6453 42.4822 21.634C42.5782 21.6246 42.6735 21.6363 42.7681 21.669C42.8646 21.6997 42.9556 21.7565 43.0408 21.8394C43.1099 21.9065 43.164 21.9809 43.2032 22.0624C43.2444 22.1459 43.2647 22.2348 43.264 22.3289C43.2633 22.423 43.2387 22.5215 43.19 22.6243C43.1434 22.7291 43.0659 22.8373 42.9573 22.949L42.8211 23.0891L43.0678 23.3289C43.1124 23.3723 43.0825 23.4479 42.9778 23.5555C42.8653 23.6712 42.7867 23.7073 42.7421 23.6639L42.4893 23.4182C42.3885 23.5137 42.2764 23.5884 42.153 23.6422C42.0296 23.696 41.9028 23.7248 41.7727 23.7286C41.6447 23.7344 41.5172 23.7132 41.3904 23.6649C41.2615 23.6186 41.1413 23.5412 41.0296 23.4327L40.722 23.1336L41.0265 22.7839L41.3372 23.0859ZM42.2737 22.1836C42.2046 22.2547 42.1715 22.3192 42.1743 22.3773C42.1791 22.4373 42.2282 22.5127 42.3216 22.6035L42.5226 22.7989L42.6618 22.6558C42.7645 22.5502 42.8162 22.4563 42.8171 22.3742C42.8199 22.2941 42.7858 22.2195 42.7148 22.1504C42.6478 22.0852 42.5763 22.0552 42.5002 22.0603C42.4242 22.0653 42.3487 22.1065 42.2737 22.1836Z" fill="#FFCC00"/>
<path d="M43.2005 23.458C43.3406 23.5942 43.4748 23.5963 43.6031 23.4643L43.9525 23.105L44.2601 23.404L43.9107 23.7634C43.8416 23.8345 43.8136 23.9059 43.8266 23.9779C43.8417 24.0517 43.8776 24.1163 43.9345 24.1716C44.0867 24.3196 44.227 24.3277 44.3553 24.1957L44.7047 23.8363L45.0154 24.1384L44.666 24.4977C44.5969 24.5688 44.5658 24.6373 44.5727 24.7033C44.5817 24.7713 44.6116 24.8299 44.6623 24.8793C44.7232 24.9385 44.7857 24.9676 44.8498 24.9667C44.9179 24.9658 44.9835 24.9328 45.0466 24.8679L45.396 24.5085L45.7067 24.8105L45.3366 25.1912C45.1727 25.3597 45.0047 25.4452 44.8325 25.4476C44.6643 25.45 44.5031 25.3761 44.3488 25.2261C44.2798 25.159 44.2256 25.0827 44.1864 24.9971C44.1491 24.9095 44.1446 24.8044 44.1729 24.6819C44.0492 24.7117 43.941 24.7072 43.8483 24.6684C43.7597 24.6296 43.6798 24.5757 43.6087 24.5066C43.5316 24.4316 43.4724 24.3503 43.4311 24.2628C43.3938 24.1752 43.3893 24.0701 43.4177 23.9476C43.2939 23.9773 43.1888 23.9758 43.1022 23.943C43.0176 23.9081 42.9408 23.8571 42.8718 23.79L42.7408 23.6627C42.7144 23.637 42.71 23.6071 42.7275 23.5728C42.745 23.5345 42.7794 23.4889 42.8307 23.4361C42.888 23.3773 42.9355 23.3385 42.9733 23.32C43.009 23.2995 43.0401 23.302 43.0665 23.3277L43.2005 23.458Z" fill="#FFCC00"/>
<path d="M3.25414 26.068L3.58934 26.4075L2.24823 27.7314L0 25.4539L0.421884 25.0374L2.33491 26.9754L3.25414 26.068Z" fill="#FFCC00"/>
<path d="M2.63437 24.1537L4.23251 25.7726L3.8415 26.1586L2.24336 24.5397L2.63437 24.1537ZM2.222 23.6262C2.2536 23.6582 2.27721 23.6958 2.29284 23.7391C2.30846 23.7824 2.31613 23.8267 2.31584 23.8722C2.31328 23.9153 2.30392 23.9584 2.28773 24.0015C2.26929 24.0423 2.24292 24.0796 2.20863 24.1134C2.17433 24.1473 2.13667 24.1732 2.09566 24.1911C2.05239 24.2067 2.00916 24.2155 1.96598 24.2175C1.92054 24.2172 1.87629 24.209 1.83323 24.1928C1.79016 24.1766 1.75283 24.1525 1.72123 24.1205C1.65577 24.0542 1.62562 23.9733 1.63078 23.8779C1.63368 23.7803 1.66829 23.6987 1.7346 23.6332C1.80091 23.5678 1.88292 23.5342 1.98063 23.5326C2.07608 23.5287 2.15654 23.5599 2.222 23.6262Z" fill="#FFCC00"/>
<path d="M4.39213 23.949C4.49045 23.852 4.53765 23.7557 4.53373 23.6603C4.53209 23.5626 4.49176 23.4737 4.41276 23.3937C4.3315 23.3113 4.24316 23.2699 4.14773 23.2693C4.05234 23.2641 3.95548 23.3101 3.85716 23.4071C3.75883 23.5042 3.71049 23.6016 3.71213 23.6993C3.7138 23.7924 3.75526 23.8802 3.83653 23.9625C3.91553 24.0425 4.00387 24.084 4.10155 24.0869C4.19923 24.0898 4.29609 24.0439 4.39213 23.949ZM5.74201 24.4315C5.69235 24.3812 5.63678 24.3661 5.57531 24.3861C5.51158 24.4039 5.44431 24.4409 5.37352 24.4973C5.30275 24.5491 5.22736 24.6122 5.14736 24.6867C5.06736 24.7611 4.98625 24.8299 4.90405 24.893C4.88315 24.9633 4.87476 25.0303 4.8789 25.0939C4.88077 25.1553 4.90428 25.2088 4.94943 25.2545C5.00812 25.314 5.08637 25.3338 5.1842 25.314C5.28428 25.2965 5.40635 25.2166 5.55041 25.0744C5.69904 24.9277 5.78393 24.801 5.80507 24.6943C5.82849 24.5854 5.80747 24.4978 5.74201 24.4315ZM4.51118 22.4026L4.65001 22.5432C4.69289 22.5866 4.69253 22.6434 4.6489 22.7136L4.5114 22.8967C4.59307 22.9154 4.67228 22.9637 4.74903 23.0414C4.82803 23.1214 4.88426 23.2104 4.9177 23.3083C4.94889 23.4039 4.95848 23.5028 4.94646 23.605C4.93444 23.7072 4.90197 23.8092 4.84905 23.9111C4.79388 24.0107 4.72171 24.1045 4.63253 24.1926C4.57307 24.2513 4.50912 24.3031 4.44067 24.3481C4.42677 24.3889 4.42199 24.4252 4.42633 24.4571C4.43296 24.4867 4.4453 24.5106 4.46336 24.5289C4.5085 24.5746 4.56527 24.5795 4.63367 24.5436C4.6998 24.5054 4.774 24.4502 4.85626 24.3781C4.93852 24.3059 5.02764 24.2269 5.12362 24.1412C5.2196 24.0555 5.31888 23.9868 5.42145 23.9353C5.52177 23.8814 5.62419 23.8548 5.72869 23.8554C5.8332 23.8561 5.93625 23.9079 6.03782 24.0108C6.11006 24.084 6.16061 24.1718 6.18949 24.2742C6.2229 24.3767 6.23129 24.4858 6.21463 24.6015C6.20024 24.7196 6.15968 24.8432 6.09295 24.9722C6.02623 25.1013 5.93113 25.2268 5.80765 25.3487C5.68417 25.4706 5.56541 25.5652 5.45138 25.6327C5.33734 25.7001 5.23028 25.7426 5.1302 25.7601C5.03237 25.7799 4.94263 25.7782 4.86099 25.7549C4.7816 25.734 4.7137 25.6949 4.65726 25.6378C4.58503 25.5646 4.54697 25.478 4.54307 25.378C4.53917 25.278 4.56144 25.1725 4.60987 25.0615C4.54156 25.0838 4.47563 25.0902 4.41208 25.0807C4.35081 25.0689 4.29083 25.0333 4.23214 24.9738C4.18474 24.9258 4.15223 24.8586 4.13461 24.7721C4.11702 24.6811 4.12674 24.5835 4.16377 24.4792C4.04085 24.5148 3.91926 24.5197 3.79901 24.4939C3.67879 24.4636 3.57015 24.3993 3.47308 24.301C3.39408 24.2209 3.33898 24.1331 3.30779 24.0375C3.2766 23.9418 3.26702 23.8429 3.27904 23.7408C3.29106 23.6386 3.32353 23.5366 3.37644 23.4347C3.42936 23.3328 3.50269 23.2356 3.59644 23.143C3.73593 23.0053 3.88421 22.9131 4.04128 22.8664L4.51118 22.4026Z" fill="#FFCC00"/>
<path d="M5.2754 21.8987C5.27848 21.7738 5.29969 21.6558 5.33903 21.5447C5.3784 21.4291 5.4484 21.3216 5.54901 21.2223C5.63819 21.1343 5.73175 21.0713 5.82969 21.0333C5.92763 20.9953 6.02656 20.9811 6.12647 20.9909C6.22637 21.0006 6.32501 21.0319 6.42236 21.0848C6.522 21.1354 6.61697 21.2065 6.70726 21.2979L7.72303 22.3269L7.33201 22.7129L6.31625 21.6839C6.21467 21.581 6.1128 21.5236 6.01063 21.5116C5.90847 21.4995 5.81051 21.5398 5.71676 21.6324C5.64816 21.7001 5.60106 21.7804 5.57547 21.8734C5.54991 21.9619 5.53792 22.0595 5.5395 22.1663L6.69747 23.3393L6.30646 23.7253L4.00066 21.3895L4.39168 21.0035L5.2754 21.8987Z" fill="#FFCC00"/>
<path d="M8.65733 21.452C8.51784 21.5897 8.372 21.657 8.21979 21.6537C8.06987 21.6482 7.9272 21.5768 7.79176 21.4396L6.88773 20.5238L6.71966 20.6897C6.69679 20.7123 6.67059 20.7246 6.64104 20.7267C6.61377 20.7265 6.58773 20.7139 6.5629 20.6887L6.41392 20.5378L6.64421 20.236L6.27277 19.7019C6.24126 19.6563 6.25066 19.6086 6.30096 19.559L6.50333 19.3592L7.01121 19.8737L7.43996 19.4505L7.70406 19.718L7.27531 20.1412L8.15226 21.0296C8.20418 21.0822 8.25624 21.1121 8.30845 21.1192C8.36069 21.1218 8.40968 21.1005 8.45541 21.0554C8.50343 21.008 8.5287 20.965 8.53122 20.9264C8.53603 20.8855 8.54758 20.8561 8.56587 20.838C8.58417 20.8199 8.61375 20.8133 8.65461 20.8181L8.94387 20.8847C8.93185 20.9869 8.90052 21.0878 8.84989 21.1875C8.80155 21.2848 8.73736 21.373 8.65733 21.452Z" fill="#FFCC00"/>
<path d="M9.19069 17.194C9.20162 17.2599 9.18994 17.3098 9.15564 17.3437C9.13277 17.3663 9.09972 17.3831 9.05648 17.3942C9.01552 17.403 8.9666 17.4152 8.90969 17.4307C8.85279 17.4463 8.79243 17.4697 8.72861 17.5011C8.66479 17.5325 8.59973 17.5809 8.53341 17.6464C8.41451 17.7638 8.35242 17.8793 8.34714 17.9928C8.34415 18.1041 8.38554 18.2032 8.47131 18.2901C8.54355 18.3633 8.62628 18.3945 8.7195 18.3837C8.81272 18.373 8.91288 18.3441 9.01997 18.2971C9.12706 18.2501 9.23988 18.1951 9.35843 18.1323C9.47701 18.0649 9.59888 18.0168 9.72403 17.9881C9.84692 17.9571 9.97303 17.9545 10.1024 17.9803C10.2295 18.0039 10.3551 18.0785 10.4792 18.2043C10.5808 18.3072 10.6584 18.4224 10.7121 18.55C10.7659 18.673 10.7912 18.8016 10.788 18.9356C10.7826 19.0673 10.75 19.2012 10.69 19.3371C10.6278 19.4708 10.5338 19.5997 10.4081 19.7238C10.2617 19.8683 10.094 19.9797 9.90491 20.058C9.71582 20.1363 9.53381 20.1737 9.35889 20.1703L9.2928 19.8495C9.29069 19.8245 9.29312 19.7995 9.3001 19.7746C9.30482 19.7473 9.31633 19.7247 9.33462 19.7066C9.35978 19.6818 9.3985 19.6662 9.4508 19.6597C9.50313 19.6487 9.56342 19.6366 9.63166 19.6234C9.69765 19.6079 9.77052 19.5834 9.85025 19.5498C9.93002 19.5117 10.0099 19.4531 10.09 19.3741C10.2089 19.2568 10.2733 19.1368 10.2831 19.0141C10.293 18.887 10.245 18.7696 10.1389 18.6622C10.0576 18.5798 9.96923 18.5429 9.87375 18.5514C9.78055 18.5576 9.6804 18.5865 9.57328 18.6381C9.46619 18.6851 9.3545 18.7412 9.2382 18.8063C9.12419 18.8692 9.0046 18.9173 8.87942 18.9505C8.75427 18.9792 8.6259 18.9796 8.4943 18.9514C8.36499 18.9211 8.23149 18.8361 8.0938 18.6967C8.01254 18.6143 7.94954 18.5185 7.90481 18.4092C7.8601 18.2953 7.84042 18.177 7.84575 18.0543C7.84883 17.9294 7.87805 17.8035 7.9334 17.6766C7.99103 17.5475 8.0793 17.4242 8.19821 17.3068C8.33312 17.1737 8.47692 17.0723 8.62959 17.0029C8.78455 16.9312 8.94157 16.8936 9.10063 16.8901L9.19069 17.194Z" fill="#FFCC00"/>
<path d="M10.5732 16.2627C10.6944 16.143 10.8233 16.0541 10.96 15.9959C11.0967 15.9378 11.2355 15.9114 11.3763 15.9168C11.5172 15.9178 11.6567 15.9516 11.7948 16.0184C11.9353 16.0829 12.0687 16.1792 12.1951 16.3072C12.3215 16.4353 12.4172 16.5711 12.4822 16.7147C12.5472 16.8537 12.5803 16.9948 12.5817 17.1379C12.5831 17.2765 12.5538 17.4138 12.4938 17.5497C12.4339 17.6856 12.3433 17.8134 12.2221 17.9331C12.1009 18.0527 11.972 18.1416 11.8353 18.1998C11.6986 18.258 11.5598 18.2866 11.4189 18.2857C11.2758 18.2825 11.134 18.2487 10.9936 18.1841C10.8531 18.1151 10.7197 18.0165 10.5933 17.8885C10.4669 17.7604 10.3712 17.6269 10.3062 17.4879C10.2435 17.3466 10.2126 17.2055 10.2135 17.0647C10.2122 16.9215 10.2415 16.782 10.3015 16.646C10.3614 16.5101 10.452 16.3823 10.5732 16.2627ZM11.9343 17.6415C12.0715 17.5061 12.127 17.361 12.1007 17.2064C12.0745 17.0472 11.9744 16.8795 11.8006 16.7034C11.6246 16.5251 11.4571 16.4218 11.2982 16.3935C11.1417 16.3629 10.9948 16.4154 10.8576 16.5508C10.7204 16.6862 10.6649 16.8336 10.6911 16.9928C10.7197 17.1497 10.822 17.3174 10.998 17.4957C11.1718 17.6718 11.337 17.7751 11.4936 17.8057C11.6502 17.8317 11.7971 17.777 11.9343 17.6415Z" fill="#FFCC00"/>
<path d="M12.2656 15.0525C12.2619 14.9162 12.2786 14.789 12.3158 14.6711C12.3529 14.5487 12.4275 14.4322 12.5395 14.3216C12.6287 14.2335 12.7223 14.1705 12.8202 14.1325C12.9182 14.0945 13.0171 14.0804 13.117 14.0901C13.2169 14.0999 13.3155 14.1312 13.4129 14.1841C13.5125 14.2347 13.6075 14.3057 13.6978 14.3972L14.7136 15.4262L14.3226 15.8122L13.3068 14.7832C13.2052 14.6803 13.1033 14.6228 13.0012 14.6108C12.899 14.5988 12.8011 14.6391 12.7073 14.7316C12.6387 14.7993 12.5916 14.8797 12.566 14.9727C12.5404 15.0611 12.5285 15.1587 12.53 15.2655L13.688 16.4386L13.297 16.8246L11.6989 15.2056L11.9355 14.972C11.9881 14.9201 12.0427 14.9091 12.0993 14.939L12.2656 15.0525Z" fill="#FFCC00"/>
<path d="M15.1499 13.0315C15.0438 12.924 14.9261 12.8619 14.7967 12.8452C14.6673 12.8284 14.5443 12.8776 14.4276 12.9927C14.3133 13.1056 14.2557 13.2279 14.2549 13.3597C14.254 13.4869 14.3066 13.6202 14.4125 13.7595L15.1499 13.0315ZM14.6324 13.996C14.7905 14.1425 14.9513 14.223 15.1148 14.2377C15.2783 14.2524 15.4287 14.192 15.5659 14.0566C15.6299 13.9934 15.678 13.9324 15.7102 13.8735C15.7424 13.8101 15.7666 13.7523 15.7829 13.7002C15.7969 13.6457 15.8097 13.5992 15.8213 13.5607C15.8306 13.5198 15.8467 13.4881 15.8696 13.4656C15.9016 13.434 15.9392 13.4217 15.9823 13.4288L16.2275 13.4577C16.236 13.5486 16.2297 13.6383 16.2087 13.7268C16.19 13.813 16.161 13.8957 16.1219 13.975C16.0851 14.052 16.0391 14.1244 15.9842 14.1922C15.9315 14.2623 15.8765 14.3256 15.8194 14.382C15.705 14.4949 15.5818 14.5804 15.4496 14.6386C15.3152 14.6946 15.1753 14.7221 15.0299 14.7211C14.8868 14.7179 14.7416 14.6829 14.5944 14.6161C14.4471 14.5447 14.3036 14.4381 14.1636 14.2963C14.0553 14.1866 13.9708 14.0667 13.9103 13.9368C13.8498 13.8024 13.8178 13.667 13.8141 13.5307C13.8082 13.392 13.8329 13.2547 13.8883 13.1188C13.9438 12.9783 14.0321 12.8482 14.1533 12.7285C14.2562 12.627 14.3669 12.5516 14.4853 12.5024C14.6038 12.4486 14.7255 12.4233 14.8505 12.4263C14.9755 12.4249 15.1002 12.4529 15.2248 12.5105C15.3517 12.5659 15.4727 12.6519 15.5878 12.7685C15.6465 12.8279 15.678 12.8736 15.6824 12.9054C15.689 12.935 15.674 12.9679 15.6374 13.004L14.6324 13.996Z" fill="#FFCC00"/>
<path d="M17.3361 12.8848C17.1966 13.0225 17.0507 13.0897 16.8985 13.0865C16.7486 13.0809 16.6059 13.0096 16.4705 12.8724L15.5664 11.9566L15.3984 12.1225C15.3755 12.1451 15.3493 12.1574 15.3198 12.1595C15.2925 12.1593 15.2664 12.1466 15.2416 12.1215L15.0926 11.9706L15.3229 11.6687L14.9515 11.1347C14.92 11.089 14.9294 11.0414 14.9797 10.9917L15.182 10.792L15.6899 11.3065L16.1187 10.8832L16.3828 11.1508L15.954 11.574L16.831 12.4623C16.8829 12.5149 16.935 12.5448 16.9872 12.552C17.0394 12.5546 17.0884 12.5333 17.1341 12.4882C17.1821 12.4408 17.2074 12.3978 17.2099 12.3591C17.2148 12.3183 17.2263 12.2888 17.2446 12.2708C17.2629 12.2527 17.2925 12.2461 17.3333 12.2509L17.6226 12.3175C17.6106 12.4197 17.5792 12.5206 17.5286 12.6202C17.4803 12.7176 17.4161 12.8058 17.3361 12.8848Z" fill="#FFCC00"/>
<path d="M17.621 28.1687C17.918 28.1687 18.149 28.1173 18.314 28.0147C18.4827 27.912 18.567 27.7782 18.567 27.6132C18.567 27.5362 18.5469 27.4757 18.5065 27.4317C18.4662 27.384 18.3947 27.3601 18.292 27.3601H17.346V26.3096C17.346 26.1666 17.368 26.0364 17.412 25.9191C17.456 25.7981 17.5183 25.6954 17.599 25.6111C17.6833 25.5231 17.7842 25.4553 17.9015 25.4076C18.0189 25.3599 18.1509 25.3361 18.2975 25.3361H18.93L18.9576 25.9411H18.2865C18.1802 25.9411 18.0904 25.9741 18.017 26.0401C17.9437 26.1024 17.907 26.1978 17.907 26.3261V26.7606H18.391C18.534 26.7606 18.6514 26.779 18.743 26.8156C18.8384 26.8523 18.9136 26.9036 18.9686 26.9696C19.0236 27.0356 19.0621 27.1145 19.0841 27.2061C19.1097 27.2978 19.1226 27.4005 19.1226 27.5142C19.1226 27.6902 19.0859 27.8552 19.0126 28.0092C18.9429 28.1632 18.8439 28.2952 18.7155 28.4052C18.5872 28.5188 18.435 28.6069 18.259 28.6692C18.0867 28.7352 17.8997 28.7682 17.698 28.7682H17.2195C16.8088 28.7682 16.4898 28.6417 16.2625 28.3887C16.0351 28.1357 15.9215 27.7892 15.9215 27.3491V26.3646H16.477V27.3271C16.477 27.4555 16.4917 27.571 16.521 27.6737C16.5503 27.7763 16.5962 27.8643 16.6585 27.9377C16.7245 28.011 16.8088 28.0678 16.9115 28.1082C17.0178 28.1485 17.1462 28.1687 17.2965 28.1687H17.621Z" fill="#0E5543"/>
<path d="M20.4964 27.4372C20.3937 27.4372 20.2947 27.4243 20.1994 27.3986C20.1077 27.3693 20.027 27.3216 19.9574 27.2556C19.8877 27.1896 19.8327 27.1035 19.7924 26.9971C19.752 26.8871 19.7319 26.7515 19.7319 26.5901V24.0271H20.2929V26.4526C20.2929 26.57 20.3186 26.6635 20.3699 26.7331C20.4249 26.7991 20.5056 26.8321 20.6119 26.8321H20.7384C20.8191 26.8321 20.8594 26.9293 20.8594 27.1236C20.8594 27.3326 20.8191 27.4372 20.7384 27.4372H20.4964Z" fill="#0E5543"/>
<path d="M21.1238 26.8321C21.3695 26.8321 21.4923 26.713 21.4923 26.4746V25.8256H22.0588V26.4746C22.0588 26.603 22.0973 26.6946 22.1743 26.7496C22.255 26.8046 22.3485 26.8321 22.4548 26.8321H22.5978C22.6822 26.8321 22.7243 26.9293 22.7243 27.1236C22.7243 27.3326 22.6822 27.4372 22.5978 27.4372H22.4383C22.299 27.4372 22.1725 27.4152 22.0588 27.3711C21.9452 27.3235 21.8461 27.23 21.7618 27.0906C21.6701 27.23 21.5711 27.3235 21.4648 27.3711C21.3585 27.4152 21.2448 27.4372 21.1238 27.4372H20.7384C20.6907 27.4372 20.6599 27.4133 20.6453 27.3656C20.6269 27.3143 20.6178 27.241 20.6178 27.1456C20.6178 27.0393 20.6269 26.9605 20.6453 26.9091C20.6599 26.8578 20.6907 26.8321 20.7384 26.8321H21.1238ZM22.0368 25.1821H21.4153V24.6211H22.0368V25.1821Z" fill="#0E5543"/>
<path d="M22.8392 26.8321C23.0922 26.8321 23.2188 26.713 23.2188 26.4746V25.8256H23.7743V26.4746C23.7743 26.603 23.8128 26.6946 23.8898 26.7496C23.9704 26.8046 24.0621 26.8321 24.1648 26.8321C24.4398 26.8321 24.5773 26.713 24.5773 26.4746V25.8256H25.1383V26.4746C25.1383 26.603 25.1713 26.6946 25.2373 26.7496C25.307 26.8046 25.3876 26.8321 25.4793 26.8321C25.5893 26.8321 25.6737 26.8028 25.7323 26.7441C25.7947 26.6818 25.8258 26.592 25.8258 26.4746V25.8256H26.3868V26.5131C26.3868 26.8175 26.308 27.0485 26.1503 27.2061C25.9963 27.3601 25.78 27.4372 25.5013 27.4372C25.3766 27.4372 25.2575 27.4152 25.1438 27.3711C25.0301 27.3235 24.9311 27.23 24.8468 27.0906C24.7588 27.23 24.6543 27.3235 24.5333 27.3711C24.416 27.4152 24.2931 27.4372 24.1648 27.4372C24.0254 27.4372 23.8971 27.4152 23.7798 27.3711C23.6661 27.3235 23.5671 27.23 23.4828 27.0906C23.3948 27.23 23.2958 27.3235 23.1857 27.3711C23.0757 27.4152 22.9584 27.4372 22.8337 27.4372H22.5978C22.5502 27.4372 22.5184 27.4133 22.5037 27.3656C22.4854 27.3143 22.4762 27.241 22.4762 27.1456C22.4762 27.0393 22.4854 26.9605 22.5037 26.9091C22.5184 26.8578 22.5502 26.8321 22.5978 26.8321H22.8392ZM25.1438 24.4121H24.5608V23.8786H25.1438V24.4121ZM25.5288 25.1821H24.9568V24.6431H25.5288V25.1821ZM24.7423 25.1821H24.1703V24.6431H24.7423V25.1821Z" fill="#0E5543"/>
<path d="M27.466 28.1687C27.6054 28.1687 27.7245 28.1485 27.8235 28.1082C27.9262 28.0715 28.0105 28.0202 28.0765 27.9542C28.1425 27.8882 28.1939 27.8093 28.2305 27.7177C28.2672 27.6297 28.2892 27.5362 28.2966 27.4372H27.9225C27.7319 27.4372 27.576 27.417 27.455 27.3766C27.334 27.3363 27.2387 27.2776 27.169 27.2006C27.0994 27.12 27.0498 27.0228 27.0205 26.9091C26.9948 26.7955 26.982 26.6671 26.982 26.5241C26.982 26.3811 27.0022 26.2473 27.0425 26.1226C27.0829 25.9943 27.1415 25.8824 27.2185 25.7871C27.2992 25.6918 27.3982 25.6166 27.5155 25.5616C27.6329 25.5029 27.7685 25.4736 27.9225 25.4736C28.0472 25.4736 28.1645 25.4938 28.2745 25.5341C28.3882 25.5744 28.4872 25.6386 28.5716 25.7266C28.6559 25.8146 28.7219 25.9283 28.7696 26.0676C28.8209 26.207 28.8466 26.3775 28.8466 26.5791V27.3491C28.8466 27.5362 28.8154 27.7158 28.7531 27.8882C28.6907 28.0605 28.6009 28.2108 28.4836 28.3392C28.3699 28.4712 28.2287 28.5757 28.06 28.6527C27.8914 28.7297 27.7025 28.7682 27.4935 28.7682H26.938L26.905 28.1687H27.466ZM27.521 26.4856C27.521 26.614 27.5485 26.7038 27.6035 26.7551C27.6622 26.8065 27.7759 26.8321 27.9445 26.8321H28.3076V26.5736C28.3076 26.383 28.2709 26.2491 28.1975 26.1721C28.1279 26.0951 28.0289 26.0566 27.9005 26.0566C27.7795 26.0566 27.686 26.0933 27.62 26.1666C27.554 26.24 27.521 26.3463 27.521 26.4856ZM28.2691 23.9776L28.5441 24.1536L28.049 25.1381H27.752L27.257 24.1536L27.532 23.9776L27.9005 24.7366L28.2691 23.9776Z" fill="#0E5543"/>
<path d="M28.9405 28.1687H29.023C29.177 28.1687 29.309 28.1448 29.419 28.0972C29.529 28.0532 29.617 27.9927 29.683 27.9157C29.7526 27.8387 29.804 27.7507 29.837 27.6517C29.87 27.5527 29.8865 27.4518 29.8865 27.3491V25.8256H30.4475V27.3491C30.4475 27.5472 30.4127 27.7323 30.343 27.9047C30.277 28.077 30.1835 28.2273 30.0625 28.3557C29.9452 28.484 29.804 28.5848 29.639 28.6582C29.4776 28.7315 29.3035 28.7682 29.1165 28.7682H28.9735L28.9405 28.1687ZM30.189 28.9772L30.464 29.1532L29.969 30.1377H29.672L29.177 29.1532L29.452 28.9772L29.8205 29.7362L30.189 28.9772Z" fill="#0E5543"/>
<path d="M16.8702 35.9624C16.7198 35.9624 16.5897 35.9404 16.4797 35.8964C16.3733 35.8487 16.2853 35.7864 16.2156 35.7094C16.1496 35.6323 16.1001 35.5425 16.0671 35.4398C16.0378 35.3372 16.0231 35.229 16.0231 35.1153V34.3343H16.5842V34.9723C16.5842 35.0933 16.6098 35.1887 16.6612 35.2583C16.7162 35.3243 16.828 35.3573 16.9967 35.3573H18.7237C18.8557 35.3573 18.9492 35.328 19.0042 35.2693C19.0629 35.207 19.0922 35.1172 19.0922 34.9998V34.3508H19.6532V35.1318C19.6532 35.2712 19.6294 35.394 19.5817 35.5003C19.5341 35.603 19.4699 35.6892 19.3892 35.7589C19.3122 35.8249 19.2224 35.8762 19.1197 35.9129C19.0207 35.9459 18.9181 35.9624 18.8117 35.9624H16.8702ZM18.5147 33.9053H17.9427V33.3663H18.5147V33.9053ZM17.7282 33.9053H17.1562V33.3663H17.7282V33.9053Z" fill="#0E5543"/>
<path d="M21.1418 35.1868C21.2849 35.1868 21.393 35.1575 21.4664 35.0988C21.5397 35.0365 21.5764 34.954 21.5764 34.8513V34.3288H21.1913C21.0373 34.3288 20.9273 34.3746 20.8613 34.4663C20.7953 34.5543 20.7623 34.6698 20.7623 34.8128C20.7623 34.9448 20.7917 35.0402 20.8503 35.0988C20.909 35.1575 21.0062 35.1868 21.1418 35.1868ZM22.1154 34.9778C22.1154 35.0952 22.141 35.1887 22.1924 35.2583C22.2437 35.3243 22.3244 35.3573 22.4344 35.3573H22.5609C22.6086 35.3573 22.6397 35.383 22.6544 35.4343C22.6727 35.482 22.6819 35.5535 22.6819 35.6488C22.6819 35.7552 22.6727 35.834 22.6544 35.8854C22.6397 35.9367 22.6086 35.9624 22.5609 35.9624H22.4344C22.2474 35.9624 22.0952 35.9294 21.9779 35.8634C21.8642 35.7974 21.778 35.6855 21.7194 35.5278C21.6277 35.6305 21.5177 35.6965 21.3894 35.7259C21.261 35.7515 21.14 35.7644 21.0263 35.7644C20.7623 35.7644 20.5625 35.6892 20.4268 35.5388C20.2912 35.3848 20.2233 35.1575 20.2233 34.8568C20.2233 34.7212 20.2417 34.5892 20.2783 34.4608C20.3187 34.3288 20.3755 34.2115 20.4488 34.1088C20.5258 34.0061 20.6212 33.9236 20.7348 33.8613C20.8522 33.799 20.9878 33.7678 21.1418 33.7678H21.5764V33.3993H22.1154V34.9778Z" fill="#0E5543"/>
<path d="M23.0646 35.3573C23.3103 35.3573 23.4331 35.2382 23.4331 34.9998V34.3508H23.9941V35.0383C23.9941 35.3427 23.9171 35.5737 23.7631 35.7314C23.6091 35.8854 23.3928 35.9624 23.1141 35.9624H22.5586C22.5109 35.9624 22.4798 35.9385 22.4651 35.8909C22.4468 35.8395 22.4376 35.7662 22.4376 35.6708C22.4376 35.5645 22.4468 35.4857 22.4651 35.4343C22.4798 35.383 22.5109 35.3573 22.5586 35.3573H23.0646ZM23.8236 33.7073H23.2021V33.1463H23.8236V33.7073Z" fill="#0E5543"/>
<path d="M25.0802 36.6939C25.2195 36.6939 25.3387 36.6737 25.4377 36.6334C25.5403 36.5967 25.6247 36.5454 25.6907 36.4794C25.7567 36.4134 25.808 36.3345 25.8447 36.2429C25.8814 36.1549 25.9034 36.0614 25.9107 35.9624H25.5367C25.346 35.9624 25.1902 35.9422 25.0692 35.9019C24.9482 35.8615 24.8528 35.8029 24.7832 35.7259C24.7135 35.6452 24.664 35.548 24.6347 35.4343C24.609 35.3207 24.5962 35.1923 24.5962 35.0493C24.5962 34.9063 24.6163 34.7725 24.6567 34.6478C24.697 34.5195 24.7557 34.4076 24.8327 34.3123C24.9133 34.217 25.0123 34.1418 25.1297 34.0868C25.247 34.0281 25.3827 33.9988 25.5367 33.9988C25.6614 33.9988 25.7787 34.019 25.8887 34.0593C26.0024 34.0996 26.1014 34.1638 26.1857 34.2518C26.27 34.3398 26.336 34.4535 26.3837 34.5928C26.435 34.7322 26.4607 34.9027 26.4607 35.1043V35.3573H26.9062C26.9869 35.3573 27.0272 35.4545 27.0272 35.6488C27.0272 35.8579 26.9869 35.9624 26.9062 35.9624H26.4497C26.4424 36.142 26.4057 36.3125 26.3397 36.4739C26.2737 36.6352 26.182 36.7764 26.0647 36.8974C25.951 37.0184 25.8135 37.1137 25.6522 37.1834C25.4908 37.2567 25.3093 37.2934 25.1077 37.2934H24.5522L24.5192 36.6939H25.0802ZM25.1352 35.0108C25.1352 35.1392 25.1627 35.229 25.2177 35.2803C25.2763 35.3317 25.39 35.3573 25.5587 35.3573H25.9217V35.0988C25.9217 34.9082 25.885 34.7743 25.8117 34.6973C25.742 34.6203 25.643 34.5818 25.5147 34.5818C25.3937 34.5818 25.3002 34.6185 25.2342 34.6918C25.1682 34.7652 25.1352 34.8715 25.1352 35.0108ZM25.8832 32.5028L26.1582 32.6788L25.6632 33.6633H25.3662L24.8712 32.6788L25.1462 32.5028L25.5147 33.2618L25.8832 32.5028Z" fill="#0E5543"/>
<path d="M27.1459 35.3573C27.399 35.3573 27.5255 35.2382 27.5255 34.9998V34.3508H28.081V34.9998C28.081 35.1282 28.1195 35.2198 28.1965 35.2748C28.2771 35.3298 28.3688 35.3573 28.4715 35.3573C28.7465 35.3573 28.884 35.2382 28.884 34.9998V34.3508H29.445V34.9998C29.445 35.1282 29.478 35.2198 29.544 35.2748C29.6137 35.3298 29.6944 35.3573 29.786 35.3573C29.896 35.3573 29.9804 35.328 30.039 35.2693C30.1014 35.207 30.1325 35.1172 30.1325 34.9998V34.3508H30.6935V35.0383C30.6935 35.3427 30.6147 35.5737 30.457 35.7314C30.303 35.8854 30.0867 35.9624 29.808 35.9624C29.6834 35.9624 29.5642 35.9404 29.4505 35.8964C29.3368 35.8487 29.2378 35.7552 29.1535 35.6158C29.0655 35.7552 28.961 35.8487 28.84 35.8964C28.7227 35.9404 28.5998 35.9624 28.4715 35.9624C28.3321 35.9624 28.2038 35.9404 28.0865 35.8964C27.9728 35.8487 27.8738 35.7552 27.7895 35.6158C27.7015 35.7552 27.6025 35.8487 27.4925 35.8964C27.3825 35.9404 27.2651 35.9624 27.1404 35.9624H26.9039C26.8563 35.9624 26.8251 35.9385 26.8104 35.8909C26.7921 35.8395 26.7829 35.7662 26.7829 35.6708C26.7829 35.5645 26.7921 35.4857 26.8104 35.4343C26.8251 35.383 26.8563 35.3573 26.9039 35.3573H27.1459Z" fill="#0E5543"/>
</svg>
